<svg width="15" height="15" viewBox="0 0 15 15" fill="none" xmlns="http://www.w3.org/2000/svg">
<path fill-rule="evenodd" clip-rule="evenodd" d="M1.48954 7.01781C1.29836 7.01781 1.14338 7.17278 1.14338 7.36396C1.14338 7.55514 1.29836 7.71011 1.48954 7.71011L7.01781 7.71011L7.01781 13.2384C7.01781 13.4296 7.17279 13.5845 7.36396 13.5845C7.55514 13.5845 7.71011 13.4296 7.71011 13.2384L7.71012 7.71011H13.2384C13.4296 7.71011 13.5845 7.55513 13.5845 7.36396C13.5845 7.17279 13.4296 7.01781 13.2384 7.01781H7.71012L7.71011 1.48953C7.71011 1.29836 7.55514 1.14338 7.36396 1.14338C7.17279 1.14338 7.01781 1.29836 7.01781 1.48953L7.01781 7.01781L1.48954 7.01781Z" fill="#DBDBDB"/>
<path d="M1.14338 7.36396L1.64338 7.36396V7.36396L1.14338 7.36396ZM1.48954 7.01781L1.48954 6.51781L1.48954 7.01781ZM1.48954 7.71011L1.48954 8.21011L1.48954 8.21011L1.48954 7.71011ZM7.01781 7.71011H7.51781V7.21011H7.01781V7.71011ZM7.01781 13.2384L7.51781 13.2384L7.51781 13.2384L7.01781 13.2384ZM7.36396 13.5845L7.36396 13.0845L7.36396 13.5845ZM7.71011 13.2384L8.21011 13.2384L8.21012 13.2384L7.71011 13.2384ZM7.71012 7.71011V7.21011H7.21012V7.71011H7.71012ZM7.71012 7.01781H7.21012V7.51781H7.71012V7.01781ZM7.71011 1.48953L8.21012 1.48953L8.21011 1.48953L7.71011 1.48953ZM7.36396 1.14338L7.36396 1.64338L7.36396 1.14338ZM7.01781 1.48953L7.51781 1.48953L7.51781 1.48953L7.01781 1.48953ZM7.01781 7.01781V7.51781L7.51781 7.51781L7.51781 7.01781H7.01781ZM1.64338 7.36396C1.64338 7.44893 1.5745 7.51781 1.48954 7.51781L1.48954 6.51781C1.02222 6.51781 0.643382 6.89664 0.643382 7.36396L1.64338 7.36396ZM1.48954 7.21011C1.5745 7.21011 1.64338 7.27899 1.64338 7.36396L0.643382 7.36396C0.643382 7.83128 1.02222 8.21011 1.48954 8.21011L1.48954 7.21011ZM7.01781 7.21011L1.48954 7.21011L1.48954 8.21011L7.01781 8.21011L7.01781 7.21011ZM7.51781 13.2384L7.51781 7.71011H6.51781L6.51781 13.2384L7.51781 13.2384ZM7.36396 13.0845C7.44893 13.0845 7.51781 13.1534 7.51781 13.2384L6.51781 13.2384C6.51781 13.7057 6.89664 14.0845 7.36396 14.0845L7.36396 13.0845ZM7.21012 13.2384C7.21012 13.1534 7.27899 13.0845 7.36396 13.0845L7.36396 14.0845C7.83128 14.0845 8.21011 13.7057 8.21011 13.2384L7.21012 13.2384ZM7.21012 7.71011L7.21012 13.2384L8.21012 13.2384L8.21012 7.71011H7.21012ZM13.2384 7.21011H7.71012V8.21011H13.2384V7.21011ZM13.0845 7.36396C13.0845 7.27899 13.1534 7.21011 13.2384 7.21011V8.21011C13.7057 8.21011 14.0845 7.83128 14.0845 7.36396H13.0845ZM13.2384 7.51781C13.1534 7.51781 13.0845 7.44893 13.0845 7.36396H14.0845C14.0845 6.89664 13.7057 6.51781 13.2384 6.51781V7.51781ZM7.71012 7.51781H13.2384V6.51781H7.71012V7.51781ZM7.21012 1.48953L7.21012 7.01781H8.21012L8.21012 1.48953L7.21012 1.48953ZM7.36396 1.64338C7.27899 1.64338 7.21012 1.5745 7.21012 1.48953L8.21011 1.48953C8.21011 1.02222 7.83128 0.643381 7.36396 0.643381L7.36396 1.64338ZM7.51781 1.48953C7.51781 1.5745 7.44893 1.64338 7.36396 1.64338L7.36396 0.643381C6.89664 0.64338 6.51781 1.02222 6.51781 1.48953L7.51781 1.48953ZM7.51781 7.01781L7.51781 1.48953L6.51781 1.48953L6.51781 7.01781H7.51781ZM1.48954 7.51781L7.01781 7.51781V6.51781L1.48954 6.51781L1.48954 7.51781Z" fill="#DBDBDB"/>
</svg>
